<?xml version="1.0" encoding="utf-8"?>
<!-- Generator: Adobe Illustrator 16.0.0, SVG Export Plug-In . SVG Version: 6.00 Build 0)  -->
<!DOCTYPE svg PUBLIC "-//W3C//DTD SVG 1.1//EN" "http://www.w3.org/Graphics/SVG/1.1/DTD/svg11.dtd">
<svg version="1.1" id="Слой_1" xmlns="http://www.w3.org/2000/svg" xmlns:xlink="http://www.w3.org/1999/xlink" x="0px" y="0px"
	 width="511px" height="511px" viewBox="0 0 511 511" enable-background="new 0 0 511 511" xml:space="preserve">
<g>
	<g>
		<path fill="#FFFFFF" d="M492.529,411.492l-37.152-78.631c-2.376-5.03-7.44-8.238-13.003-8.238c-5.563,0-10.628,3.208-13.005,8.238
			l-37.154,78.631c-4.823,8.57-7.37,18.301-7.37,28.186c0,31.721,25.807,57.528,57.529,57.528c31.719,0,57.526-25.807,57.526-57.528
			C499.899,429.793,497.354,420.063,492.529,411.492z M442.374,468.441c-15.859,0-28.765-12.903-28.765-28.764
			c0-5.054,1.325-10.015,3.828-14.351c0.198-0.342,0.381-0.692,0.552-1.05l24.385-51.606l24.386,51.608
			c0.17,0.357,0.354,0.707,0.55,1.049c2.504,4.336,3.828,9.298,3.828,14.351C471.138,455.538,458.234,468.441,442.374,468.441z"/>
	</g>
</g>
<path fill="#FFFFFF" d="M486.521,392.218H344.563c66.922-33.303,110.523-102.071,110.523-178.131C455.087,104.306,365.781,15,256,15
	S56.913,104.306,56.913,214.087c0,76.06,43.602,144.828,110.523,178.131H25.479c-5.782,0-10.479,4.681-10.479,10.478v83.826
	C15,492.318,19.697,497,25.479,497h461.043c5.797,0,10.479-4.682,10.479-10.479v-83.826
	C497,396.898,492.318,392.218,486.521,392.218z M77.87,214.087c0-98.224,79.907-178.13,178.13-178.13s178.131,79.907,178.131,178.13
	c0,70.299-41.535,133.757-104.783,162.321v-51.921c32.274-20.445,53.251-50.411,60.133-85.115c0.608-1.331,0.987-2.778,0.987-4.329
	c0-0.092-0.052-0.179-0.052-0.271c1.08-6.759,1.802-13.635,1.802-20.686c0-75.108-61.11-136.217-136.218-136.217
	c-75.108,0-136.217,61.109-136.217,136.217c0,7.05,0.721,13.927,1.801,20.686c0,0.092-0.051,0.179-0.051,0.271
	c0,1.55,0.379,2.998,0.988,4.329c6.871,34.704,27.848,64.67,60.132,85.115v51.931C119.404,347.844,77.87,284.386,77.87,214.087z
	 M140.739,214.087c0-63.55,51.711-115.261,115.261-115.261s115.261,51.711,115.261,115.261c0,3.561-0.358,7.02-0.67,10.479H141.409
	C141.097,221.106,140.739,217.648,140.739,214.087z M476.043,476.044H35.957v-62.87H193.13c5.782,0,10.479-4.682,10.479-10.479
	v-83.826c0-0.45-0.2-0.839-0.261-1.278c-0.097-0.722-0.189-1.402-0.419-2.093c-0.22-0.65-0.537-1.218-0.88-1.807
	c-0.328-0.563-0.65-1.1-1.08-1.601c-0.491-0.568-1.059-1.009-1.658-1.459c-0.333-0.25-0.563-0.608-0.941-0.828
	c-26.994-15.61-45.044-37.877-52.98-64.282H366.6c-7.936,26.405-25.976,48.662-52.979,64.282c-0.379,0.22-0.608,0.578-0.941,0.839
	c-0.599,0.45-1.156,0.891-1.647,1.448c-0.439,0.501-0.763,1.049-1.09,1.611c-0.332,0.588-0.649,1.156-0.869,1.796
	c-0.241,0.69-0.333,1.381-0.42,2.103c-0.062,0.44-0.261,0.818-0.261,1.269v83.826c0,5.797,4.681,10.479,10.478,10.479h157.174
	V476.044z"/>
</svg>
