<?xml version="1.0" encoding="utf-8"?>
<!-- Generator: Adobe Illustrator 16.0.0, SVG Export Plug-In . SVG Version: 6.00 Build 0)  -->
<!DOCTYPE svg PUBLIC "-//W3C//DTD SVG 1.1//EN" "http://www.w3.org/Graphics/SVG/1.1/DTD/svg11.dtd">
<svg version="1.1" id="Слой_1" xmlns="http://www.w3.org/2000/svg" xmlns:xlink="http://www.w3.org/1999/xlink" x="0px" y="0px"
	 width="511px" height="511px" viewBox="0 0 511 511" enable-background="new 0 0 511 511" xml:space="preserve">
<path fill="#FFFFFF" d="M500.946,237.646l-82.063-41.029l82.063-41.033c14.679-7.337,14.694-28.359,0-35.708L265.406,2.105
	c-5.621-2.807-12.234-2.807-17.855,0l-235.54,117.77c-14.679,7.341-14.694,28.362,0,35.708l82.063,41.033l-82.063,41.029
	c-14.679,7.341-14.694,28.358,0,35.708l82.063,41.033l-82.063,41.029c-14.679,7.34-14.694,28.357,0,35.707l235.54,117.771
	c5.61,2.803,12.223,2.814,17.855,0l235.54-117.771c14.679-7.342,14.694-28.359,0-35.707l-82.063-41.029l82.063-41.033
	C515.625,266.016,515.641,244.994,500.946,237.646z M256.479,42.277l190.904,95.454l-190.904,95.451L65.574,137.731L256.479,42.277z
	 M447.383,373.271l-190.904,95.45l-190.905-95.45l73.135-36.569l108.842,54.421c5.614,2.803,12.223,2.814,17.855,0l108.843-54.421
	L447.383,373.271z M256.479,350.951l-190.905-95.45l73.135-36.569l108.842,54.422c5.614,2.803,12.223,2.814,17.855,0l108.843-54.422
	l73.134,36.569L256.479,350.951z"/>
</svg>
