<?xml version="1.0" encoding="utf-8"?>
<!-- Generator: Adobe Illustrator 16.0.0, SVG Export Plug-In . SVG Version: 6.00 Build 0)  -->
<!DOCTYPE svg PUBLIC "-//W3C//DTD SVG 1.1//EN" "http://www.w3.org/Graphics/SVG/1.1/DTD/svg11.dtd">
<svg version="1.1" id="Слой_1" xmlns="http://www.w3.org/2000/svg" xmlns:xlink="http://www.w3.org/1999/xlink" x="0px" y="0px"
	 width="511px" height="511px" viewBox="0 0 511 511" enable-background="new 0 0 511 511" xml:space="preserve">
<path fill="#FFFFFF" d="M481.68,197.477c16.719,0,30.32-13.598,30.32-30.316v-48.746c0-16.719-13.602-30.32-30.32-30.32h-72.234
	C403.008,62.781,380.02,44,352.73,44c-27.293,0-50.277,18.781-56.715,44.094h-33.973C255.605,62.781,232.617,44,205.328,44
	c-27.293,0-50.277,18.781-56.715,44.094h-33.387C108.789,62.781,85.801,44,58.512,44C26.246,44,0,70.25,0,102.512v306.977
	C0,441.75,26.25,468,58.512,468c27.086,0,49.93-18.496,56.566-43.523h33.684c6.637,25.027,29.48,43.523,56.566,43.523
	c27.082,0,49.93-18.496,56.566-43.523h34.27C302.801,449.504,325.645,468,352.73,468c27.082,0,49.93-18.496,56.566-43.523H482v9
	c0,8.285,6.715,15,15,15s15-6.715,15-15V305.094c0-8.281-6.715-15-15-15s-15,6.719-15,15v10h-70.758V197.477H481.68z
	 M117.023,167.477v-49.383h29.793v49.383H117.023z M146.816,197.477v117.617h-29.793V197.477H146.816z M58.512,438
	C42.789,438,30,425.211,30,409.488V102.512C30,86.789,42.789,74,58.512,74s28.512,12.789,28.512,28.512v306.977
	C87.023,425.211,74.234,438,58.512,438z M117.023,345.094h29.793v49.383h-29.793V345.094z M233.84,409.488
	c0,15.723-12.789,28.512-28.512,28.512s-28.512-12.789-28.512-28.512V102.512c0-15.723,12.789-28.512,28.512-28.512
	s28.512,12.789,28.512,28.512V409.488z M263.84,315.094V197.477h30.379v117.617H263.84z M294.219,345.094v49.383H263.84v-49.383
	H294.219z M263.84,167.477v-49.383h30.379v49.383H263.84z M381.242,409.488c0,15.723-12.789,28.512-28.512,28.512
	s-28.512-12.789-28.512-28.512V102.512C324.219,86.789,337.008,74,352.73,74s28.512,12.789,28.512,28.512V409.488z M482,118.414
	v48.746c0,0.176-0.145,0.316-0.32,0.316h-70.438v-49.383h70.438C481.855,118.094,482,118.238,482,118.414z M482,345.094v49.383
	h-70.758v-49.383H482z"/>
</svg>
