<?xml version="1.0" encoding="utf-8"?>
<!-- Generator: Adobe Illustrator 16.0.0, SVG Export Plug-In . SVG Version: 6.00 Build 0)  -->
<!DOCTYPE svg PUBLIC "-//W3C//DTD SVG 1.1//EN" "http://www.w3.org/Graphics/SVG/1.1/DTD/svg11.dtd">
<svg version="1.1" id="Слой_1" xmlns="http://www.w3.org/2000/svg" xmlns:xlink="http://www.w3.org/1999/xlink" x="0px" y="0px"
	 width="511px" height="511px" viewBox="0 0 511 511" enable-background="new 0 0 511 511" xml:space="preserve">
<g>
	<g>
		<path fill="#FFFFFF" d="M498.354,192.302l-28.765-49.82c-11.895-20.603-38.336-27.688-58.893-15.82L210.345,241.335v-79.192
			c0-5.069,2.713-9.816,7.08-12.391l95.276-56.151c17.271-10.181,24.392-31.108,16.932-49.762
			c-6.955-17.385-25.615-27.729-44.369-24.597c-18.197,3.04-34.856,5.728-50.968,8.328C164.61,38.814,118.572,46.244,87.721,59.839
			c-34.55,15.228-49.957,38.932-49.957,76.86v218.202C21.024,360.84,9,376.824,9,395.574v28.765c0,7.941,6.439,14.381,14.381,14.381
			h201.346c7.943,0,14.382-6.439,14.382-14.381v-28.765c0-11.962-4.896-22.801-12.787-30.623l129.534-74.294l7.417,12.846
			c11.894,20.603,38.335,27.688,58.938,15.793l49.82-28.765c20.603-11.894,27.688-38.334,15.792-58.938l-7.211-12.49l12.44-7.135
			C499.954,208.01,502.332,199.192,498.354,192.302z M66.528,136.7c0-50.981,32.914-58.233,172.352-80.735
			c16.15-2.606,32.852-5.302,51.124-8.354c5.52-0.921,10.953,1.984,12.925,6.908c2.146,5.371,0.117,11.385-4.83,14.299
			l-95.276,56.153c-13.1,7.722-21.239,21.964-21.239,37.169v17.704H66.528V136.7z M66.528,208.61h115.055v143.819H66.528V208.61z
			 M210.346,409.956H37.764v-14.382c0-7.931,6.452-14.381,14.381-14.381c8.117,0,137.096,0,143.818,0
			c7.931,0,14.381,6.452,14.381,14.381L210.346,409.956L210.346,409.956z M457.648,265.621l-49.821,28.765
			c-6.868,3.965-15.679,1.604-19.644-5.265l-7.191-12.457l74.729-43.145l7.19,12.456
			C466.878,252.843,464.517,261.656,457.648,265.621z M210.346,340.957v-66.48L425.033,151.6c6.866-3.968,15.681-1.604,19.646,5.264
			l21.553,37.33L210.346,340.957z"/>
	</g>
</g>
<g>
	<g>
		<path fill="#FFFFFF" d="M492.529,411.492l-37.152-78.631c-2.376-5.03-7.44-8.238-13.003-8.238c-5.563,0-10.628,3.208-13.005,8.238
			l-37.154,78.631c-4.823,8.57-7.37,18.301-7.37,28.186c0,31.721,25.807,57.528,57.529,57.528c31.719,0,57.526-25.807,57.526-57.528
			C499.899,429.793,497.354,420.063,492.529,411.492z M442.374,468.441c-15.859,0-28.765-12.903-28.765-28.764
			c0-5.054,1.325-10.015,3.828-14.351c0.198-0.342,0.381-0.692,0.552-1.05l24.385-51.606l24.386,51.608
			c0.17,0.357,0.354,0.707,0.55,1.049c2.504,4.336,3.828,9.298,3.828,14.351C471.138,455.538,458.234,468.441,442.374,468.441z"/>
	</g>
</g>
</svg>
